<?xml version="1.0" encoding="utf-8"?>
<!-- Generator: Adobe Illustrator 23.0.1, SVG Export Plug-In . SVG Version: 6.00 Build 0)  -->
<svg version="1.1" id="Layer_1" xmlns="http://www.w3.org/2000/svg" xmlns:xlink="http://www.w3.org/1999/xlink" x="0px" y="0px"
	 viewBox="0 0 37.62 37.62" style="enable-background:new 0 0 37.62 37.62;" xml:space="preserve">
<style type="text/css">
	.st0{fill:#8FDEF6;}
	.st1{fill:#70C9E9;}
	.st2{fill:#FFFFFF;}
	.st3{fill:#E6E5E5;}
	.st4{fill:#FD8369;}
	.st5{fill:#EA6552;}
	.st6{fill:#E24F3B;}
	.st7{fill:#CCCBCA;}
	.st8{fill:#495057;}
	.st9{fill:#343B43;}
</style>
<ellipse transform="matrix(0.9239 -0.3827 0.3827 0.9239 -5.7569 8.68)" class="st0" cx="18.94" cy="18.81" rx="18.81" ry="18.81"/>
<path class="st1" d="M37.5,21.84L24.16,8.49H11.78c-0.19,0-0.37,0.07-0.51,0.21c-0.14,0.14-0.21,0.33-0.21,0.51V28.4
	c0,0.19,0.07,0.37,0.21,0.51l8.68,8.68C28.85,37.12,36.11,30.47,37.5,21.84z"/>
<g>
	<g>
		<path class="st2" d="M26.83,11.16V28.4c0,0.19-0.07,0.37-0.21,0.51c-0.14,0.14-0.33,0.21-0.51,0.21H11.78
			c-0.19,0-0.37-0.07-0.51-0.21c-0.14-0.14-0.21-0.33-0.21-0.51V9.22c0-0.19,0.07-0.37,0.21-0.51c0.14-0.14,0.33-0.21,0.51-0.21
			h12.38L26.83,11.16z"/>
		<path class="st3" d="M26.83,11.16h-1.94c-0.19,0-0.37-0.07-0.51-0.21c-0.14-0.14-0.21-0.33-0.21-0.51V8.49L26.83,11.16z"/>
	</g>
	<g>
		
			<rect x="18.56" y="20.16" transform="matrix(0.7071 -0.7071 0.7071 0.7071 -7.684 22.7371)" class="st4" width="10.09" height="0.97"/>
		
			<rect x="19.25" y="20.84" transform="matrix(0.7066 -0.7076 0.7076 0.7066 -7.967 23.4449)" class="st5" width="10.09" height="0.97"/>
		
			<rect x="19.93" y="21.53" transform="matrix(0.7076 -0.7066 0.7066 0.7076 -8.2541 24.0885)" class="st6" width="10.09" height="0.97"/>
		<polygon class="st3" points="21.75,25.93 19.88,26.43 19.19,25.74 19.69,23.87 		"/>
		<polygon class="st7" points="21.75,25.93 21.07,25.24 19.65,26.2 19.88,26.43 		"/>
		<polygon class="st8" points="19.88,26.43 18.94,26.68 19.19,25.74 		"/>
		
			<rect x="28.4" y="17.62" transform="matrix(0.7072 -0.7071 0.7071 0.7072 -4.343 25.7273)" class="st3" width="0.97" height="0.97"/>
		
			<rect x="27.37" y="16.11" transform="matrix(0.7071 -0.7071 0.7071 0.7071 -3.9158 24.7012)" class="st2" width="0.97" height="1.94"/>
		<path class="st9" d="M29.73,17.95l-0.16,0.16l-0.69-0.69l0.16-0.16c0.26-0.26,0.43-0.63,0.43-1.03c0-0.22-0.05-0.44-0.14-0.63
			c0.15,0.07,0.29,0.17,0.4,0.28c0.26,0.26,0.43,0.63,0.43,1.03C30.16,17.32,30,17.68,29.73,17.95z"/>
		<path class="st8" d="M29.05,17.26l-0.16,0.16l-1.37-1.37l0.16-0.16c0.26-0.26,0.63-0.43,1.03-0.43c0.22,0,0.44,0.05,0.63,0.14
			c0.09,0.19,0.14,0.4,0.14,0.63C29.47,16.63,29.31,17,29.05,17.26z"/>
	</g>
	<g>
		<rect x="13.72" y="14.43" class="st8" width="10.44" height="0.82"/>
		<rect x="13.72" y="17.7" class="st8" width="10.02" height="0.82"/>
		<rect x="13.72" y="16.06" class="st8" width="10.44" height="0.82"/>
		<rect x="13.72" y="11.16" class="st5" width="5.22" height="0.82"/>
		<rect x="13.72" y="12.8" class="st8" width="10.44" height="0.82"/>
		<rect x="13.72" y="25.86" class="st8" width="1.85" height="0.82"/>
		<rect x="13.72" y="19.33" class="st8" width="8.39" height="0.82"/>
		<rect x="13.72" y="24.23" class="st8" width="3.49" height="0.82"/>
		<rect x="13.72" y="20.96" class="st8" width="6.75" height="0.82"/>
		<rect x="13.72" y="22.6" class="st8" width="5.12" height="0.82"/>
	</g>
</g>
</svg>
