<?xml version="1.0" encoding="utf-8"?>
<!-- Generator: Adobe Illustrator 23.0.1, SVG Export Plug-In . SVG Version: 6.00 Build 0)  -->
<svg version="1.1" id="Layer_1" xmlns="http://www.w3.org/2000/svg" xmlns:xlink="http://www.w3.org/1999/xlink" x="0px" y="0px"
	 viewBox="0 0 37.62 37.62" style="enable-background:new 0 0 37.62 37.62;" xml:space="preserve">
<style type="text/css">
	.st0{fill:#FECE66;}
	.st1{fill:#F5B540;}
	.st2{fill:#FD8369;}
	.st3{fill:#EA6552;}
	.st4{fill:#E24F3B;}
	.st5{fill:#FFFFFF;}
	.st6{fill:#E6E5E5;}
	.st7{fill:#495057;}
	.st8{fill:#1E262E;}
	.st9{fill:#343B43;}
	.st10{fill:#8FDEF6;}
</style>
<path class="st0" d="M37.62,18.81c0,10.39-8.42,18.81-18.81,18.81C8.42,37.62,0,29.2,0,18.81C0,8.42,8.42,0,18.81,0
	C29.2,0,37.62,8.42,37.62,18.81z"/>
<path class="st1" d="M37.57,20.15L26.74,9.32C26.6,9.17,26.41,9.1,26.23,9.1H11.4c-0.19,0-0.37,0.07-0.51,0.21
	c-0.14,0.14-0.21,0.33-0.21,0.51v17.96c0,0.19,0.07,0.37,0.21,0.51l9.26,9.26C29.47,36.92,36.92,29.47,37.57,20.15z"/>
<g>
	<g>
		<rect x="28.21" y="15.37" class="st2" width="0.62" height="11.44"/>
		<rect x="28.83" y="15.37" class="st3" width="0.63" height="11.44"/>
		<rect x="29.46" y="15.37" class="st4" width="0.63" height="11.44"/>
		<polygon class="st5" points="30.09,15.37 29.46,14.28 28.83,14.28 28.21,15.37 		"/>
		<polygon class="st6" points="30.09,15.37 29.46,15.37 29.25,14.28 29.46,14.28 		"/>
		<polygon class="st7" points="29.46,14.28 29.15,13.74 28.83,14.28 		"/>
		<rect x="29.46" y="26.81" class="st6" width="0.63" height="0.62"/>
		<rect x="28.21" y="26.81" class="st5" width="1.25" height="0.62"/>
		<path class="st8" d="M30.08,27.58v-0.15h-0.63v0.15c0,0.24-0.09,0.48-0.27,0.66c-0.1,0.1-0.22,0.18-0.35,0.22
			c0.1,0.04,0.21,0.05,0.31,0.05c0.24,0,0.48-0.09,0.67-0.28C29.99,28.06,30.08,27.82,30.08,27.58z"/>
		<path class="st9" d="M29.46,27.58v-0.15h-1.25v0.15c0,0.24,0.09,0.48,0.28,0.66c0.1,0.1,0.22,0.18,0.35,0.22
			c0.13-0.04,0.25-0.12,0.35-0.22C29.37,28.06,29.46,27.82,29.46,27.58z"/>
	</g>
	<g>
		<path class="st7" d="M11.4,28.52c-0.19,0-0.37-0.07-0.51-0.21c-0.14-0.14-0.21-0.33-0.21-0.51v-11.8h16.29v11.8
			c0,0.19-0.07,0.37-0.21,0.51c-0.14,0.14-0.33,0.21-0.51,0.21H11.4z"/>
		<g>
			<g>
				<g>
					<path class="st3" d="M21.94,19.51c0,0.13-0.11,0.24-0.24,0.24h-2.02c-0.13,0-0.24-0.11-0.24-0.24v-2.02
						c0-0.13,0.11-0.24,0.24-0.24h2.02c0.13,0,0.24,0.11,0.24,0.24V19.51z"/>
				</g>
			</g>
			<g>
				<path class="st5" d="M14.43,23.27c0,0.13-0.11,0.24-0.24,0.24h-2.02c-0.13,0-0.24-0.11-0.24-0.24v-2.02
					c0-0.13,0.11-0.24,0.24-0.24h2.02c0.13,0,0.24,0.11,0.24,0.24V23.27z"/>
			</g>
			<g>
				<path class="st5" d="M18.18,23.27c0,0.13-0.11,0.24-0.24,0.24h-2.02c-0.13,0-0.24-0.11-0.24-0.24v-2.02
					c0-0.13,0.11-0.24,0.24-0.24h2.02c0.13,0,0.24,0.11,0.24,0.24V23.27z"/>
			</g>
			<g>
				<path class="st5" d="M14.43,27.02c0,0.13-0.11,0.24-0.24,0.24h-2.02c-0.13,0-0.24-0.11-0.24-0.24V25c0-0.13,0.11-0.24,0.24-0.24
					h2.02c0.13,0,0.24,0.11,0.24,0.24V27.02z"/>
			</g>
			<g>
				<path class="st5" d="M18.18,27.02c0,0.13-0.11,0.24-0.24,0.24h-2.02c-0.13,0-0.24-0.11-0.24-0.24V25c0-0.13,0.11-0.24,0.24-0.24
					h2.02c0.13,0,0.24,0.11,0.24,0.24V27.02z"/>
			</g>
			<g>
				<path class="st5" d="M25.7,19.51c0,0.13-0.11,0.24-0.24,0.24h-2.02c-0.13,0-0.24-0.11-0.24-0.24v-2.02
					c0-0.13,0.11-0.24,0.24-0.24h2.02c0.13,0,0.24,0.11,0.24,0.24V19.51z"/>
			</g>
			<g>
				<path class="st5" d="M21.94,23.27c0,0.13-0.11,0.24-0.24,0.24h-2.02c-0.13,0-0.24-0.11-0.24-0.24v-2.02
					c0-0.13,0.11-0.24,0.24-0.24h2.02c0.13,0,0.24,0.11,0.24,0.24V23.27z"/>
			</g>
			<g>
				<path class="st5" d="M25.7,23.27c0,0.13-0.11,0.24-0.24,0.24h-2.02c-0.13,0-0.24-0.11-0.24-0.24v-2.02
					c0-0.13,0.11-0.24,0.24-0.24h2.02c0.13,0,0.24,0.11,0.24,0.24V23.27z"/>
			</g>
			<g>
				<path class="st5" d="M21.94,27.02c0,0.13-0.11,0.24-0.24,0.24h-2.02c-0.13,0-0.24-0.11-0.24-0.24V25c0-0.13,0.11-0.24,0.24-0.24
					h2.02c0.13,0,0.24,0.11,0.24,0.24V27.02z"/>
			</g>
			<g>
				<path class="st5" d="M25.7,27.02c0,0.13-0.11,0.24-0.24,0.24h-2.02c-0.13,0-0.24-0.11-0.24-0.24V25c0-0.13,0.11-0.24,0.24-0.24
					h2.02c0.13,0,0.24,0.11,0.24,0.24V27.02z"/>
			</g>
		</g>
		<rect x="10.67" y="15.37" class="st5" width="16.29" height="0.63"/>
		<path class="st7" d="M10.67,15.37V9.83c0-0.19,0.07-0.37,0.21-0.51c0.14-0.14,0.33-0.21,0.51-0.21h14.83
			c0.19,0,0.37,0.07,0.51,0.21c0.14,0.14,0.21,0.33,0.21,0.51v5.54H10.67z"/>
		<path class="st10" d="M25.7,13.87c0,0.13-0.11,0.24-0.24,0.24H12.16c-0.13,0-0.24-0.11-0.24-0.24V10.6c0-0.13,0.11-0.24,0.24-0.24
			h13.29c0.13,0,0.24,0.11,0.24,0.24V13.87z"/>
		<g>
			<rect x="11.92" y="17.56" class="st8" width="6.26" height="1.88"/>
			<rect x="12.23" y="17.87" class="st9" width="5.64" height="1.25"/>
			<rect x="15.89" y="17.87" class="st8" width="0.31" height="1.25"/>
			<rect x="13.9" y="17.87" class="st8" width="0.31" height="1.25"/>
		</g>
	</g>
</g>
</svg>
