<?xml version="1.0" encoding="utf-8"?>
<!-- Generator: Adobe Illustrator 23.0.1, SVG Export Plug-In . SVG Version: 6.00 Build 0)  -->
<svg version="1.1" id="Layer_1" xmlns="http://www.w3.org/2000/svg" xmlns:xlink="http://www.w3.org/1999/xlink" x="0px" y="0px"
	 viewBox="0 0 37.62 37.62" style="enable-background:new 0 0 37.62 37.62;" xml:space="preserve">
<style type="text/css">
	.st0{fill:#495057;}
	.st1{fill:#343B43;}
	.st2{fill:#8FDEF6;}
	.st3{fill:#FFFFFF;}
	.st4{fill:#FD8369;}
	.st5{fill:#FECE66;}
</style>
<path class="st0" d="M18.81,0C29.2,0,37.62,8.42,37.62,18.81S29.2,37.62,18.81,37.62C8.42,37.62,0,29.2,0,18.81S8.42,0,18.81,0"/>
<path class="st1" d="M28.92,10.78C28.92,10.78,28.92,10.77,28.92,10.78c-0.01-0.01-0.01-0.01-0.01-0.02c-0.14-0.13-0.33-0.2-0.5-0.2
	H9.22c-0.19,0-0.37,0.07-0.52,0.21C8.57,10.91,8.5,11.1,8.5,11.29v15.05c0,0.19,0.07,0.37,0.21,0.51l10.75,10.76
	c9.87-0.34,17.8-8.27,18.14-18.14L28.92,10.78z"/>
<g>
	<g>
		<path class="st2" d="M29.13,26.34c0,0.19-0.07,0.37-0.21,0.51c-0.14,0.14-0.33,0.21-0.51,0.21H9.22c-0.19,0-0.37-0.07-0.51-0.21
			c-0.14-0.14-0.21-0.33-0.21-0.51V14.27h20.63V26.34z"/>
		<path class="st3" d="M29.13,14.27H8.49v-2.99c0-0.19,0.07-0.37,0.21-0.51c0.14-0.14,0.33-0.21,0.51-0.21H28.4
			c0.19,0,0.37,0.07,0.51,0.21c0.14,0.14,0.21,0.33,0.21,0.51V14.27z"/>
	</g>
	<g>
		<polygon class="st3" points="16.1,23.27 13.49,20.67 16.1,18.06 16.78,18.75 14.87,20.67 16.78,22.58 		"/>
		<polygon class="st3" points="21.52,23.27 20.84,22.58 22.75,20.67 20.84,18.75 21.52,18.06 24.13,20.67 		"/>
		
			<rect x="15.03" y="20.18" transform="matrix(0.2737 -0.9618 0.9618 0.2737 -6.2171 33.1029)" class="st3" width="7.57" height="0.97"/>
	</g>
	<g>
		<path class="st4" d="M10.92,12.42c0,0.34-0.27,0.61-0.61,0.61c-0.33,0-0.61-0.27-0.61-0.61s0.27-0.61,0.61-0.61
			C10.65,11.81,10.92,12.08,10.92,12.42z"/>
		<path class="st5" d="M12.74,12.42c0,0.34-0.27,0.61-0.61,0.61c-0.34,0-0.61-0.27-0.61-0.61s0.27-0.61,0.61-0.61
			C12.47,11.81,12.74,12.08,12.74,12.42z"/>
		<path class="st2" d="M14.56,12.42c0,0.34-0.27,0.61-0.61,0.61c-0.34,0-0.61-0.27-0.61-0.61s0.27-0.61,0.61-0.61
			C14.29,11.81,14.56,12.08,14.56,12.42z"/>
	</g>
</g>
</svg>
