<?xml version="1.0" encoding="utf-8"?>
<!-- Generator: Adobe Illustrator 23.0.1, SVG Export Plug-In . SVG Version: 6.00 Build 0)  -->
<svg version="1.1" id="Layer_1" xmlns="http://www.w3.org/2000/svg" xmlns:xlink="http://www.w3.org/1999/xlink" x="0px" y="0px"
	 viewBox="0 0 37.62 37.62" style="enable-background:new 0 0 37.62 37.62;" xml:space="preserve">
<style type="text/css">
	.st0{fill:#FECE66;}
	.st1{fill:#F5B540;}
	.st2{fill:#FFFFFF;}
	.st3{fill:#E6E5E5;}
	.st4{fill:#495057;}
	.st5{fill:#EA6552;}
	.st6{fill:#343B43;}
</style>
<path class="st0" d="M37.62,18.81c0,10.39-8.42,18.81-18.81,18.81C8.42,37.62,0,29.2,0,18.81S8.42,0,18.81,0
	C29.2,0,37.62,8.42,37.62,18.81z"/>
<path class="st1" d="M24.48,9.61l-0.33-0.33c-1.4-1.31-3.27-2.12-5.34-2.12c-4.3,0-7.78,3.49-7.78,7.78c0,2.28,0.98,4.33,2.54,5.75
	c0.07,0.06,0.15,0.13,0.22,0.19c1.22,1.11,1.98,2.71,1.98,4.48v0.68h-0.42v4.13c0,0.12,0.05,0.25,0.14,0.35c0,0,0,0,0,0c0,0,0,0,0,0
	l6.78,6.78c7.57-1.41,13.54-7.34,15-14.89L24.48,9.61z"/>
<g>
	<path class="st2" d="M18.81,7.16c-4.3,0-7.78,3.48-7.78,7.78c0,2.28,0.98,4.33,2.54,5.75c0.07,0.06,0.15,0.13,0.22,0.19
		c1.22,1.11,1.98,2.7,1.98,4.48v0.68h3.04h3.04v-0.68c0-1.77,0.76-3.37,1.98-4.48c0.07-0.07,0.15-0.13,0.22-0.19
		c1.56-1.42,2.54-3.47,2.54-5.75C26.59,10.64,23.11,7.16,18.81,7.16z"/>
	<path class="st3" d="M25,14.94c0,3.42-2.77,6.19-6.19,6.19c-3.42,0-6.19-2.77-6.19-6.19c0-3.42,2.77-6.19,6.19-6.19
		C22.23,8.75,25,11.53,25,14.94z"/>
	<g>
		<g>
			<g>
				<polygon class="st4" points="19.15,10.45 18.47,10.45 18.27,11.44 19.35,11.44 				"/>
				<polygon class="st4" points="16.86,10.88 16.27,11.22 16.59,12.18 17.53,11.64 				"/>
				<polygon class="st4" points="15.09,12.4 14.75,12.99 15.51,13.66 16.05,12.72 				"/>
				<polygon class="st4" points="14.32,14.6 14.32,15.28 15.31,15.48 15.31,14.4 				"/>
				<polygon class="st4" points="14.75,16.89 15.09,17.48 16.05,17.16 15.51,16.22 				"/>
				<polygon class="st4" points="16.27,18.66 16.86,19 17.53,18.24 16.59,17.7 				"/>
				<polygon class="st4" points="18.47,19.43 19.15,19.43 19.35,18.44 18.27,18.44 				"/>
				<polygon class="st4" points="20.76,19 21.35,18.66 21.03,17.7 20.09,18.24 				"/>
				<polygon class="st4" points="22.53,17.48 22.87,16.89 22.11,16.22 21.57,17.16 				"/>
				<polygon class="st4" points="23.3,15.28 23.3,14.6 22.31,14.4 22.31,15.48 				"/>
				<polygon class="st4" points="22.87,12.99 22.53,12.4 21.57,12.72 22.11,13.66 				"/>
				<polygon class="st4" points="21.35,11.22 20.76,10.88 20.09,11.64 21.03,12.18 				"/>
			</g>
		</g>
		<path class="st4" d="M18.81,11.4c-1.95,0-3.54,1.58-3.54,3.54s1.59,3.54,3.54,3.54c1.96,0,3.54-1.58,3.54-3.54
			S20.77,11.4,18.81,11.4z M18.81,15.92c-0.54,0-0.98-0.44-0.98-0.98c0-0.54,0.44-0.98,0.98-0.98c0.54,0,0.98,0.44,0.98,0.98
			C19.79,15.48,19.35,15.92,18.81,15.92z"/>
		<path class="st5" d="M18.81,13.24c-0.94,0-1.7,0.76-1.7,1.7c0,0.94,0.76,1.7,1.7,1.7c0.94,0,1.7-0.76,1.7-1.7
			C20.51,14,19.75,13.24,18.81,13.24z M18.81,15.79c-0.47,0-0.85-0.38-0.85-0.85c0-0.47,0.38-0.85,0.85-0.85
			c0.47,0,0.85,0.38,0.85,0.85C19.66,15.41,19.28,15.79,18.81,15.79z"/>
	</g>
	<g>
		<polygon class="st2" points="18.81,31.92 16.71,30.66 20.92,30.66 		"/>
		<path class="st6" d="M22.28,30.17c0,0.13-0.05,0.25-0.15,0.35c-0.1,0.1-0.22,0.14-0.35,0.14h-5.94c-0.13,0-0.25-0.05-0.35-0.14
			c-0.1-0.1-0.15-0.22-0.15-0.35v-4.12h6.93V30.17z"/>
		<rect x="15.34" y="26.56" class="st4" width="6.93" height="0.51"/>
		<rect x="15.34" y="27.58" class="st4" width="6.93" height="0.51"/>
		<rect x="15.34" y="28.61" class="st4" width="6.93" height="0.51"/>
		<rect x="15.34" y="29.63" class="st4" width="6.93" height="0.52"/>
	</g>
</g>
</svg>
