<?xml version="1.0" encoding="UTF-8"?> <!-- Generator: Adobe Illustrator 23.0.1, SVG Export Plug-In . SVG Version: 6.00 Build 0) --> <svg xmlns="http://www.w3.org/2000/svg" xmlns:xlink="http://www.w3.org/1999/xlink" id="Layer_1" x="0px" y="0px" viewBox="0 0 37.62 37.62" style="enable-background:new 0 0 37.62 37.62;" xml:space="preserve"> <style type="text/css"> .st0{fill:#495057;} .st1{fill:#343B43;} .st2{fill:#ECA334;} .st3{fill:#FECE66;} .st4{fill:#FFFFFF;} </style> <ellipse transform="matrix(0.7071 -0.7071 0.7071 0.7071 -7.754 18.9022)" class="st0" cx="18.94" cy="18.81" rx="18.81" ry="18.81"></ellipse> <path class="st1" d="M36.68,25.08l-17-17L19.6,8.01c0,0,0-0.01-0.01-0.01c0,0,0-0.01-0.01-0.01c-0.01-0.01-0.02-0.01-0.03-0.02 c-0.02-0.01-0.04-0.02-0.06-0.03c-0.31-0.15-0.8-0.15-1.11,0c-0.02,0.01-0.04,0.02-0.06,0.03c-0.01,0.01-0.02,0.01-0.03,0.02 c-0.03,0.02-0.06,0.05-0.08,0.08c-0.01,0.01-0.01,0.01-0.02,0.02c-0.01,0.01-0.02,0.03-0.02,0.05c0,0.01-0.01,0.02-0.01,0.04 c-0.12,0.35-0.99,2.94-0.99,2.96l0,0.01l-0.99,2.95c-0.32,0.94-0.64,1.92-0.96,2.86c0,0.01,0,0.01-0.01,0.02 c-0.01,0.03-0.02,0.05-0.03,0.08c-0.37,1.1-0.72,2.15-1.02,3.06l0,0l-5.43,2.71c-0.2,0.1-0.34,0.31-0.34,0.56 c0,0.15,0.06,0.29,0.15,0.4c0.02,0.02,0.04,0.05,0.07,0.07l13.5,13.5C28.88,36.21,34.43,31.43,36.68,25.08z"></path> <g> <path class="st2" d="M19.78,28.63c-0.25,0.13-0.54,0.2-0.84,0.2c-0.3,0-0.59-0.07-0.84-0.2l-9.37-4.69 c-0.2-0.1-0.35-0.31-0.35-0.56c0-0.24,0.14-0.46,0.35-0.56l9.37-4.69c0.25-0.13,0.54-0.2,0.84-0.2c0.3,0,0.59,0.07,0.84,0.2 l9.37,4.69c0.21,0.1,0.35,0.31,0.35,0.56c0,0.25-0.14,0.46-0.35,0.56L19.78,28.63z"></path> <path class="st3" d="M20.71,11.14C20.71,11.14,20.71,11.13,20.71,11.14c-0.01-0.03-1.01-3-1.01-3c-0.03-0.08-0.1-0.15-0.21-0.2 c-0.15-0.08-0.35-0.11-0.55-0.11c-0.2,0-0.4,0.04-0.55,0.11c-0.11,0.06-0.18,0.13-0.21,0.2c0,0-1,2.97-1,3c0,0,0,0,0,0 c-0.06,0.27,0.11,0.54,0.51,0.74c0.7,0.35,1.83,0.35,2.53,0C20.61,11.68,20.78,11.4,20.71,11.14z"></path> <path class="st3" d="M23.04,25.44c-1.13,0.57-2.62,0.85-4.1,0.85c-1.49,0-2.97-0.28-4.1-0.85c-1.13-0.57-1.7-1.31-1.7-2.05 c0-0.08,0.01-0.16,0.02-0.24v0c0-0.02,0.01-0.04,0.01-0.07c0.01-0.04,0.02-0.07,0.03-0.11c0,0,0.39-1.17,0.96-2.86 c-0.13,0.69,0.33,1.41,1.39,1.93c1.88,0.94,4.92,0.94,6.79,0c1.06-0.53,1.52-1.24,1.39-1.93c0.57,1.69,0.96,2.86,0.96,2.86 c0.01,0.04,0.02,0.07,0.03,0.11c0,0.02,0.01,0.04,0.01,0.07v0C24.86,23.97,24.3,24.81,23.04,25.44z"></path> <path class="st2" d="M19.49,8.49c-0.31,0.15-0.8,0.15-1.1,0c-0.31-0.15-0.31-0.4,0-0.55c0.3-0.15,0.8-0.15,1.1,0 C19.8,8.09,19.8,8.33,19.49,8.49z"></path> <path class="st3" d="M15.21,16.98c-0.21,0.59,0.13,1.23,1.05,1.68c1.48,0.74,3.88,0.74,5.37,0c0.87-0.44,1.23-1.03,1.08-1.6 c-0.33-0.98-0.67-1.99-1-2.97c0.12,0.42-0.15,0.86-0.79,1.18c-1.09,0.54-2.86,0.54-3.95,0c-0.64-0.32-0.91-0.76-0.79-1.18 C15.86,15.04,15.53,16.02,15.21,16.98z"></path> <path class="st4" d="M21.7,14.09l-0.99-2.95c0.06,0.26-0.11,0.54-0.51,0.74c-0.7,0.35-1.83,0.35-2.53,0 c-0.4-0.2-0.57-0.47-0.51-0.74l-0.99,2.95c-0.12,0.42,0.15,0.86,0.79,1.18c1.09,0.54,2.86,0.54,3.95,0 C21.55,14.95,21.82,14.51,21.7,14.09z"></path> <path class="st4" d="M23.72,20.12c-0.3-0.91-0.66-1.96-1.03-3.07c0.16,0.57-0.2,1.17-1.07,1.61c-1.48,0.74-3.88,0.74-5.37,0 c-0.93-0.46-1.27-1.11-1.04-1.7c-0.38,1.14-0.75,2.23-1.06,3.16c-0.13,0.69,0.33,1.4,1.39,1.93c1.88,0.94,4.92,0.94,6.79,0 C23.4,21.52,23.86,20.81,23.72,20.12z"></path> </g> </svg> 