<?xml version="1.0" encoding="utf-8"?>
<!-- Generator: Adobe Illustrator 23.0.1, SVG Export Plug-In . SVG Version: 6.00 Build 0)  -->
<svg version="1.1" id="Layer_1" xmlns="http://www.w3.org/2000/svg" xmlns:xlink="http://www.w3.org/1999/xlink" x="0px" y="0px"
	 viewBox="0 0 37.62 37.62" style="enable-background:new 0 0 37.62 37.62;" xml:space="preserve">
<style type="text/css">
	.st0{fill:#FD8369;}
	.st1{fill:#EA6552;}
	.st2{fill:#FFFFFF;}
	.st3{fill:#E6E5E5;}
	.st4{fill:#E24F3B;}
	.st5{fill:#F5B540;}
	.st6{fill:#70C9E9;}
	.st7{fill:#CCCBCA;}
	.st8{fill:#FECE66;}
	.st9{fill:#495057;}
	.st10{fill:#343B43;}
	.st11{fill:#1E262E;}
</style>
<path class="st0" d="M37.75,18.81c0,10.39-8.42,18.81-18.81,18.81c-10.39,0-18.81-8.42-18.81-18.81S8.55,0,18.94,0
	C29.33,0,37.75,8.42,37.75,18.81z"/>
<path class="st1" d="M29.04,10.77c-0.14-0.14-0.33-0.21-0.51-0.21H9.35c-0.19,0-0.37,0.07-0.52,0.21c-0.14,0.14-0.21,0.33-0.21,0.51
	v15.05c0,0.19,0.07,0.37,0.21,0.51l10.76,10.76c9.87-0.34,17.8-8.27,18.14-18.14L29.04,10.77z"/>
<g>
	<g>
		<path class="st2" d="M29.26,26.33c0,0.19-0.07,0.37-0.21,0.51c-0.14,0.14-0.33,0.21-0.52,0.21H9.35c-0.19,0-0.37-0.07-0.52-0.21
			c-0.14-0.14-0.21-0.33-0.21-0.51V14.27h20.63V26.33z"/>
		<path class="st3" d="M29.26,14.27H8.62v-2.98c0-0.19,0.07-0.37,0.21-0.52c0.14-0.14,0.33-0.21,0.52-0.21h19.17
			c0.19,0,0.37,0.07,0.52,0.21c0.14,0.14,0.21,0.33,0.21,0.52V14.27z"/>
		<g>
			<path class="st4" d="M11.05,12.42c0,0.33-0.27,0.61-0.61,0.61c-0.33,0-0.61-0.27-0.61-0.61c0-0.34,0.27-0.61,0.61-0.61
				C10.78,11.81,11.05,12.08,11.05,12.42z"/>
			<path class="st5" d="M12.87,12.42c0,0.33-0.27,0.61-0.61,0.61c-0.34,0-0.61-0.27-0.61-0.61c0-0.34,0.27-0.61,0.61-0.61
				C12.6,11.81,12.87,12.08,12.87,12.42z"/>
			<path class="st6" d="M14.69,12.42c0,0.33-0.27,0.61-0.61,0.61c-0.34,0-0.61-0.27-0.61-0.61c0-0.34,0.27-0.61,0.61-0.61
				C14.42,11.81,14.69,12.08,14.69,12.42z"/>
		</g>
	</g>
	<g>
		<g>
			<polygon class="st7" points="21.29,16.96 21.03,16.96 21.03,16.43 21.55,16.43 21.55,16.96 			"/>
			<path class="st7" d="M20.43,16.96h-0.59v-0.54h0.59V16.96z M19.24,16.96h-0.59v-0.54h0.59V16.96z M18.05,16.96h-0.6v-0.54h0.6
				V16.96z"/>
			<rect x="16.34" y="16.43" class="st7" width="0.53" height="0.54"/>
			<path class="st7" d="M16.86,20.52h-0.53v-0.59h0.53V20.52z M16.86,19.33h-0.53v-0.59h0.53V19.33z M16.86,18.15h-0.53v-0.59h0.53
				V18.15z"/>
			<rect x="16.34" y="21.11" class="st7" width="0.53" height="0.54"/>
			<rect x="21.03" y="21.11" class="st7" width="0.53" height="0.54"/>
			<path class="st7" d="M21.55,20.52h-0.53v-0.59h0.53V20.52z M21.55,19.33h-0.53v-0.59h0.53V19.33z M21.55,18.15h-0.53v-0.59h0.53
				V18.15z"/>
		</g>
		<rect x="10.21" y="16.43" class="st8" width="5.22" height="5.22"/>
		<rect x="22.46" y="16.43" class="st8" width="5.22" height="5.22"/>
		<g>
			<rect x="10.2" y="24.09" class="st7" width="5.22" height="0.82"/>
			<rect x="10.2" y="22.46" class="st7" width="5.22" height="0.82"/>
		</g>
		<g>
			<rect x="22.46" y="24.09" class="st7" width="5.22" height="0.82"/>
			<rect x="22.46" y="22.46" class="st7" width="5.22" height="0.82"/>
		</g>
		<g>
			<rect x="17.44" y="21.63" class="st9" width="1" height="5.43"/>
			<rect x="18.44" y="21.63" class="st10" width="1" height="5.43"/>
			<rect x="19.44" y="21.63" class="st11" width="1" height="5.43"/>
			<polygon class="st3" points="20.44,21.63 19.44,19.9 18.44,19.9 17.44,21.63 			"/>
			<polygon class="st7" points="20.44,21.63 19.44,21.63 19.11,19.9 19.44,19.9 			"/>
			<polygon class="st10" points="19.44,19.9 18.94,19.04 18.44,19.9 			"/>
		</g>
	</g>
</g>
</svg>
